<svg width="154" height="68" viewBox="0 0 154 68" fill="none" xmlns="http://www.w3.org/2000/svg">
<g clip-path="url(#clip0_19_256)">
<path d="M21.2522 0H8.77509V12.3165H21.2522V0Z" fill="#10C59A"/>
<path d="M31.826 18.9637V8.79102H0V18.9637H8.11689V37.1464C8.11689 37.2379 8.11689 37.3294 8.11927 37.4209C8.17155 43.1604 9.91801 47.3144 13.3587 49.8851C16.854 52.4958 21.7346 53.7999 27.9981 53.7999H31.2795V42.6374H27.2686C23.74 42.6374 21.9793 41.1081 21.9793 38.0471V25.3553C21.9793 23.4953 21.1429 22.0833 19.4701 21.1239C17.7973 20.1646 16.0508 19.6838 14.2259 19.6838V18.9637H31.826Z" fill="white"/>
<path d="M147.843 19.3248C145.805 15.7244 142.797 12.8112 138.814 10.59C134.834 8.37342 130.077 7.25928 124.545 7.25928C119.014 7.25928 114.271 8.37342 110.319 10.59C106.366 12.8112 103.372 15.722 101.335 19.3248C99.2989 22.9229 98.2819 26.7039 98.2819 30.6656V32.1057C98.2819 32.8423 98.3176 33.5717 98.3889 34.2988H112.239C112.239 34.2988 112.237 34.2801 112.235 34.2684H150.809C150.866 33.6679 150.899 33.0674 150.899 32.467V30.6679C150.899 26.7063 149.882 22.9252 147.846 19.3272L147.843 19.3248ZM112.964 25.7165C113.815 23.3732 115.229 21.5742 117.203 20.3123C119.178 19.0551 121.628 18.4218 124.545 18.4218C127.463 18.4218 129.923 19.0527 131.93 20.3123C133.938 21.5742 135.364 23.3732 136.217 25.7165H112.964Z" fill="white"/>
<path d="M67.4871 54.0535H53.1328L36.4595 8.8335H50.8161L67.4871 54.0535Z" fill="#077256"/>
<path d="M74.2401 8.8335H60.7507V54.0535H74.2401V8.8335Z" fill="#109875"/>
<path d="M67.5275 54.0134H81.8818L98.5552 8.79346H84.1985L67.5275 54.0134Z" fill="#10C59A"/>
<path d="M21.9793 18.9639V25.3555C21.9793 23.4955 21.1429 22.0835 19.4701 21.1241C17.7973 20.1648 16.0508 19.684 14.2283 19.684V18.9639H21.9793Z" fill="#10C59A"/>
<path d="M151.417 2.85938C152.848 2.85938 154 4.0345 154 5.48405C154 6.9336 152.848 8.12046 151.417 8.12046C149.987 8.12046 148.822 6.94533 148.822 5.48405C148.822 4.02277 149.975 2.85938 151.417 2.85938ZM151.417 7.83195C152.669 7.83195 153.684 6.78349 153.684 5.46998C153.684 4.15647 152.672 3.14553 151.417 3.14553C150.163 3.14553 149.138 4.18227 149.138 5.46998C149.138 6.75769 150.151 7.83195 151.417 7.83195ZM152.353 7.13298L151.467 5.57084H150.771V7.13298H150.493V3.84685H151.417C152.139 3.84685 152.517 4.13536 152.517 4.69595C152.517 5.16975 152.263 5.44652 151.783 5.54504L152.669 7.13298H152.353ZM150.771 5.32221H151.353C151.947 5.32221 152.227 5.12284 152.227 4.71002C152.227 4.2972 151.961 4.09783 151.353 4.09783H150.771V5.32221Z" fill="white"/>
<path d="M2.65179 63.8224V65.0562H77.1889V63.8224L2.65179 63.8224Z" fill="url(#paint0_linear_19_256)"/>
<path d="M150.26 37.3271C149.471 40.6273 147.993 43.6437 145.838 46.374C143.68 49.1042 140.808 51.3113 137.22 52.9908C135.518 53.7883 133.679 54.3934 131.705 54.8133C130.101 55.1534 128.409 55.3692 126.627 55.4583C125.976 55.4935 125.313 55.5099 124.636 55.5099C118.983 55.5099 114.164 54.3676 110.184 52.0901C106.202 49.8102 103.22 46.8853 101.247 43.3154C100.169 41.3662 99.3844 39.3725 98.8973 37.3271H113.05C113.743 39.0722 114.794 40.5124 116.2 41.65C118.36 43.3881 121.171 44.2888 124.636 44.3474C127.411 44.2888 129.768 43.6672 131.705 42.4827C131.721 42.4756 131.736 42.4663 131.75 42.4569C133.694 41.2583 135.124 39.5484 136.034 37.3271H150.26Z" fill="white"/>
<path d="M83.3217 62.3022H86.6079V62.7643H83.8587V64.0684H86.4321V64.5258H83.8587V66.1278H86.7077V66.5899H83.3217V62.3022Z" fill="white"/>
<path d="M91.4624 62.3022H93.1114C94.5062 62.3022 95.383 63.2757 95.383 64.4461C95.383 65.6165 94.5039 66.5899 93.1114 66.5899H91.4624V62.3022ZM93.0782 66.1278C94.1237 66.1278 94.827 65.4125 94.827 64.4461C94.827 63.4797 94.1237 62.7643 93.0782 62.7643H91.9994V66.1255H93.0782V66.1278Z" fill="white"/>
<path d="M100.192 64.8824V62.3022H100.729V64.8636C100.729 65.6564 101.171 66.1677 101.996 66.1677C102.82 66.1677 103.262 65.6587 103.262 64.8636V62.3022H103.799V64.8824C103.799 65.9543 103.122 66.6556 101.996 66.6556C100.87 66.6556 100.192 65.9543 100.192 64.8824Z" fill="white"/>
<path d="M108.609 64.4392C108.609 63.2148 109.58 62.2344 110.875 62.2344C111.453 62.2344 111.983 62.4408 112.37 62.7832L112.054 63.1398C111.726 62.863 111.336 62.7152 110.909 62.7152C109.904 62.7152 109.167 63.4893 109.167 64.4369C109.167 65.3845 109.904 66.1702 110.875 66.1702C111.379 66.1702 111.833 65.9708 112.149 65.6401L112.484 66.0037C112.083 66.4001 111.519 66.6511 110.875 66.6511C109.58 66.6511 108.609 65.6706 108.609 64.4345V64.4392Z" fill="white"/>
<path d="M118.859 62.2881H119.342L121.38 66.5898H120.836L120.435 65.7572H117.773L117.372 66.5898H116.823L118.862 62.2881H118.859ZM120.24 65.3256L119.441 63.6579C119.294 63.3459 119.125 62.9355 119.099 62.8839C119.073 62.9378 118.912 63.3412 118.757 63.6579L117.959 65.3256H120.237H120.24Z" fill="white"/>
<path d="M127.176 67.8145L127.323 67.5752C127.497 67.7019 127.713 67.7347 127.879 67.7347C128.162 67.7347 128.354 67.5893 128.354 67.404C128.354 67.2374 128.2 67.1718 128.045 67.1718C127.891 67.1718 127.725 67.2586 127.656 67.35L127.368 67.2445L127.729 66.6417C126.563 66.5221 125.719 65.5956 125.719 64.4392C125.719 63.2148 126.691 62.2344 127.986 62.2344C128.563 62.2344 129.093 62.4408 129.481 62.7832L129.165 63.1398C128.837 62.863 128.447 62.7152 128.019 62.7152C127.014 62.7152 126.278 63.4893 126.278 64.4369C126.278 65.3845 127.014 66.1702 127.986 66.1702C128.49 66.1702 128.944 65.9708 129.26 65.6401L129.595 66.0037C129.205 66.3884 128.663 66.6323 128.045 66.6511L127.851 66.9959C127.917 66.956 128.038 66.9302 128.138 66.9302C128.459 66.9302 128.694 67.1014 128.694 67.3876C128.694 67.7183 128.373 67.9974 127.877 67.9974C127.542 67.9974 127.28 67.8848 127.173 67.8121L127.176 67.8145Z" fill="white"/>
<path d="M135.865 62.2881H136.348L138.386 66.5898H137.842L137.441 65.7572H134.779L134.378 66.5898H133.829L135.868 62.2881H135.865ZM137.246 65.3256L136.447 63.6579C136.3 63.3459 136.131 62.9355 136.105 62.8839C136.079 62.9378 135.918 63.3412 135.763 63.6579L134.965 65.3256H137.243H137.246Z" fill="white"/>
<path d="M142.725 64.4463C142.725 63.2149 143.697 62.2368 144.992 62.2368C146.287 62.2368 147.252 63.2173 147.252 64.4463C147.252 65.6754 146.28 66.6558 144.992 66.6558C143.704 66.6558 142.725 65.6754 142.725 64.4463ZM146.693 64.4463C146.693 63.494 145.957 62.72 144.99 62.72C144.023 62.72 143.281 63.494 143.281 64.4463C143.281 65.3986 144.018 66.1727 144.99 66.1727C145.962 66.1727 146.693 65.3986 146.693 64.4463Z" fill="white"/>
<path d="M135.2 61.3877H137.103" stroke="white" stroke-width="1.5" stroke-miterlimit="10"/>
</g>
<defs>
<linearGradient id="paint0_linear_19_256" x1="76.9038" y1="64.4393" x2="2.36666" y2="64.4393" gradientUnits="userSpaceOnUse">
<stop stop-color="#10C59A"/>
<stop offset="1" stop-color="#10C59A" stop-opacity="0"/>
</linearGradient>
<clipPath id="clip0_19_256">
<rect width="154" height="68" fill="white"/>
</clipPath>
</defs>
</svg>
