<?xml version="1.0" encoding="UTF-8" standalone="no"?>
<!-- Created with Inkscape (http://www.inkscape.org/) -->

<svg
   version="1.1"
   id="svg1"
   width="1254"
   height="1254"
   viewBox="0 200 1254 1000"
   sodipodi:docname="Vistro_Logo.svg"
   inkscape:version="1.4.4 (dcaf3e7d9e, 2026-05-05)"
   xmlns:inkscape="http://www.inkscape.org/namespaces/inkscape"
   xmlns:sodipodi="http://sodipodi.sourceforge.net/DTD/sodipodi-0.dtd"
   xmlns="http://www.w3.org/2000/svg"
   xmlns:svg="http://www.w3.org/2000/svg">
  <defs
     id="defs1" />
  <sodipodi:namedview
     id="namedview1"
     pagecolor="#505050"
     bordercolor="#eeeeee"
     borderopacity="1"
     inkscape:showpageshadow="0"
     inkscape:pageopacity="0"
     inkscape:pagecheckerboard="0"
     inkscape:deskcolor="#505050"
     inkscape:zoom="0.84688995"
     inkscape:cx="526.63277"
     inkscape:cy="443.38701"
     inkscape:window-width="3840"
     inkscape:window-height="2132"
     inkscape:window-x="0"
     inkscape:window-y="0"
     inkscape:window-maximized="1"
     inkscape:current-layer="g1" />
  <g
     inkscape:groupmode="layer"
     inkscape:label="Image"
     id="g1">
    <path
       style="fill:#000000;stroke-width:3.10999"
       d="m 590.94422,1020.8232 c -8.82995,-4.4001 -22.7498,-15.3825 -30.93306,-24.40537 C 530.54807,963.93186 418.76927,806.37333 334.00137,677.84427 l -52.0067,-78.85497 0.94933,-64.30405 c 0.91147,-61.74201 1.26246,-64.91196 8.80998,-79.56241 5.70319,-11.07051 14.53463,-20.35268 32.17696,-33.81923 26.9573,-20.57672 26.89895,-21.20392 -2.4762,-26.61962 -25.228,-4.65112 -32.89646,-10.15801 -32.89646,-23.62365 0,-15.62867 9.97392,-21.03732 41.88284,-22.71211 24.14378,-1.2672 25.97289,-0.91459 30.76837,5.9319 2.80419,4.00359 5.1295,10.11668 5.16734,13.58472 0.0383,3.51112 8.88702,-8.85507 19.9672,-27.90442 38.05062,-65.41758 47.34601,-78.2527 61.63129,-85.10077 19.15524,-9.18266 79.16862,-14.00681 174.90699,-14.05981 91.38849,-0.0507 155.08739,4.89721 174.72188,13.57148 15.52299,6.85787 23.24821,17.01942 57.57057,75.72716 24.14479,41.29922 25.74186,43.28934 27.56936,34.35386 3.1529,-15.41591 5.1665,-16.72173 25.66342,-16.64274 36.0008,0.13871 51.9088,7.26416 51.9088,23.25073 0,12.51731 -7.44808,17.76452 -32.9213,23.19307 -13.53745,2.88495 -24.61353,6.69055 -24.61353,8.4569 0,1.76632 9.04466,10.06241 20.09925,18.43569 38.49251,29.1561 43.65557,43.83548 43.65557,124.12016 v 50.51223 l -41.39094,63.35546 C 823.38465,814.89502 692.24565,996.75707 670.68965,1012.0101 c -27.04874,19.1398 -53.21873,22.0319 -79.74543,8.8131 z M 663.7178,812.42491 C 852.59832,573.41114 849.43863,577.62406 843.94265,572.12498 c -4.08376,-4.08607 -11.45801,-5.13519 -36.09521,-5.13519 H 776.8845 l -83.24231,83.19226 c -45.78323,45.75575 -84.96374,83.19226 -87.06777,83.19226 -2.10404,0 -15.3897,-10.1781 -29.52371,-22.618 -58.99373,-51.92267 -56.37537,-50.33368 -84.93865,-51.54583 -19.03647,-0.80782 -27.8796,0.1894 -35.18563,3.96735 -12.06819,6.24073 -12.30306,12.78176 -0.95958,26.72553 4.83945,5.94882 27.50902,35.30723 50.37681,65.24089 81.62623,106.84773 99.811,128.49087 104.10804,123.90733 2.1515,-2.29498 26.12126,-32.27698 53.2661,-66.62667 z M 465.82776,537.7058 c 0,-7.04543 -40.70481,-38.98075 -63.75482,-50.01939 -26.38719,-12.63679 -66.48143,-23.77735 -74.49976,-20.70042 -7.12226,2.73306 -6.21187,26.12829 1.50955,38.79305 10.30784,16.907 38.00116,25.94647 96.31514,31.43859 38.26362,3.60373 40.42989,3.62988 40.42989,0.48817 z m 387.19389,-3.5549 c 46.4842,-6.59539 67.04391,-19.91418 71.50548,-46.32192 2.50674,-14.83741 -1.6135,-21.91391 -12.75927,-21.91391 -11.7651,0 -63.51373,17.77099 -80.80898,27.75061 -18.43401,10.63667 -51.72706,40.12237 -49.45471,43.7991 1.80687,2.92361 40.04297,1.15184 71.51748,-3.31388 z m -1.31512,-138.76042 c 2.01229,-2.01291 2.83332,-6.91114 1.82454,-10.88496 -3.26954,-12.87957 -53.33483,-93.60051 -62.12301,-100.16184 -11.65873,-8.70449 -31.95625,-10.6864 -134.73393,-13.15582 -92.66389,-2.22638 -177.47562,1.95006 -195.90247,9.64697 -10.03063,4.18978 -27.59598,29.95525 -57.08286,83.7311 l -13.49192,24.60554 7.13438,5.77708 c 6.82525,5.52674 16.74572,5.74077 228.92548,4.93939 164.95897,-0.62303 222.72861,-1.77547 225.44979,-4.49746 z M 176.89454,416.97196 C 141.99217,357.51067 97.44155,281.99296 77.893142,249.15488 58.344763,216.31676 42.835579,186.92735 43.428281,183.84507 c 0.996752,-5.18352 6.636379,-5.66681 75.133029,-6.43853 79.02817,-0.89036 92.3492,0.75296 107.1656,13.22014 7.55905,6.36052 64.4982,100.81089 70.71432,117.30056 1.51289,4.01326 -0.87182,6.48368 -9.90006,10.25591 -23.7349,9.91708 -35.30279,26.61717 -35.30279,50.96529 0,18.12102 4.01158,30.21217 13.32056,40.14905 5.49262,5.86311 6.01578,8.0839 2.93058,12.43997 -7.05374,9.95931 -18.46766,33.27836 -20.86238,42.62261 -1.31509,5.13149 -3.26469,20.89349 -4.33241,35.02666 l -1.94132,25.69668 z m 826.33166,77.67897 c -1.1783,-24.46958 -3.1461,-34.10731 -10.15027,-49.71474 -4.77872,-10.64843 -10.47109,-20.84011 -12.64973,-22.6482 -3.11295,-2.5835 -1.69442,-6.65585 6.62444,-19.0176 22.29876,-33.1359 9.64236,-70.97099 -29.13882,-87.10727 l -10.07631,-4.19261 33.72581,-58.9497 c 45.73508,-79.94092 36.13598,-74.50375 133.75568,-75.76205 76.8213,-0.99019 90.6887,-0.0787 90.6887,5.96057 0,1.8177 -5.0767,11.93739 -11.2816,22.48819 -6.2049,10.55077 -22.7981,38.77618 -36.8739,62.72311 -31.4171,53.44971 -126.123,214.22926 -140.5995,238.69183 -5.8203,9.83535 -11.0281,17.88245 -11.5727,17.88245 -0.5446,0 -1.6479,-13.6593 -2.4518,-30.35398 z"
       id="path1"
       sodipodi:nodetypes="ssscsssssssssssssssssssscsssssscssssssssssssssssssssssssssscssssssssssssssscsssssscssssssss" />
    <text
       xml:space="preserve"
       style="font-style:normal;font-variant:normal;font-weight:normal;font-stretch:normal;font-size:188.611px;font-family:Roboto;-inkscape-font-specification:Roboto;writing-mode:lr-tb;direction:ltr;fill:#ffffff;stroke-width:1.9647"
       x="1480.0173"
       y="646.84186"
       id="text1"><tspan
         id="tspan1"
         x="1480.0173"
         y="646.84186"
         style="font-style:normal;font-variant:normal;font-weight:bold;font-stretch:normal;font-size:188.611px;font-family:C059;-inkscape-font-specification:'C059 Bold';fill:#000000;stroke-width:1.9647"
         sodipodi:role="line">Vistro</tspan></text>
  </g>
</svg>
